# xmcd
#
# Track frame offsets:
#	150
#	28392
#	43102
#	62002
#	82644
#	98206
#	113086
#	128178
#	148395
#	169245
#
# Disc length: 2520 seconds
#
# Revision: 0
# Processed by: cddbd v1.5.2PL0 Copyright (c) Steve Scherf et al.
# Submitted via: dBpowerAMP V4.0
#
DISCID=8a09d60a
DTITLE=Yan Kesuma BAS - Let's Holiday to Bali
DYEAR=1900
DGENRE=Country
TTITLE0=cening pianak bapa
TTITLE1=dug...dug...dug...
TTITLE2=let's holiday to Bali
TTITLE3=kangen rindu
TTITLE4=mekenyem je adi
TTITLE5=selenkong-lenkong
TTITLE6=suara jagat
TTITLE7=tresnan adi mesempen di hati
TTITLE8=tresnan bli ngantos mati
TTITLE9=tresnan bli asiki
EXTD=Let's Holiday to Bali
EXTT0=
EXTT1=
EXTT2=
EXTT3=
EXTT4=
EXTT5=
EXTT6=
EXTT7=
EXTT8=
EXTT9=
PLAYORDER=
